<svg width="14" height="14" viewBox="0 0 14 14" fill="none" xmlns="http://www.w3.org/2000/svg">
<path d="M6.50033 10.164H7.50029V7.49736H10.167V6.4974H7.50029V3.83073H6.50033V6.4974H3.83366V7.49736H6.50033V10.164ZM7.00143 13.3307C6.12547 13.3307 5.30211 13.1645 4.53136 12.832C3.76059 12.4996 3.09014 12.0484 2.51999 11.4785C1.94984 10.9086 1.49846 10.2385 1.16588 9.46805C0.833287 8.69764 0.666992 7.87445 0.666992 6.9985C0.666992 6.12254 0.833215 5.29919 1.16566 4.52843C1.4981 3.75766 1.94927 3.08721 2.51916 2.51706C3.08906 1.94691 3.75922 1.49553 4.52964 1.16295C5.30005 0.830357 6.12324 0.664062 6.99919 0.664062C7.87515 0.664062 8.6985 0.830285 9.46926 1.16273C10.24 1.49517 10.9105 1.94634 11.4806 2.51623C12.0508 3.08613 12.5022 3.75629 12.8347 4.52671C13.1673 5.29712 13.3336 6.12031 13.3336 6.99626C13.3336 7.87222 13.1674 8.69557 12.835 9.46633C12.5025 10.2371 12.0513 10.9076 11.4815 11.4777C10.9116 12.0479 10.2414 12.4992 9.47098 12.8318C8.70056 13.1644 7.87738 13.3307 7.00143 13.3307Z" fill="#242424"/>
</svg>
