<svg width="169" height="32" viewBox="0 0 169 32" fill="none" xmlns="http://www.w3.org/2000/svg">
<g clip-path="url(#clip0_174_58)">
<path d="M15.4115 0L24.9582 25.5316H19.1135L17.2021 19.8478H7.65546L5.64351 25.5316H0L9.65734 0H15.4115ZM15.7334 15.663L12.5143 6.29739H12.4439L9.11412 15.663H15.7334Z" fill="black"/>
<path d="M30.6822 7.04182V9.40586H30.7526C31.3028 8.4604 32.1224 7.70039 33.1066 7.22289C34.0793 6.76754 35.141 6.53389 36.215 6.53883C37.5141 6.50684 38.8015 6.78987 39.9673 7.36373C40.9894 7.88967 41.8826 8.63512 42.5829 9.54669C43.2892 10.4976 43.8113 11.5724 44.122 12.7155C44.4562 13.9449 44.622 15.2139 44.6149 16.4879C44.6205 17.6956 44.4545 18.898 44.122 20.0591C43.8028 21.1489 43.2881 22.1715 42.603 23.077C41.9218 23.9613 41.0524 24.6829 40.0579 25.1896C38.9546 25.7333 37.7364 26.0025 36.5068 25.9742C35.4116 25.9858 34.328 25.7484 33.338 25.2801C32.3843 24.8285 31.5658 24.1348 30.9639 23.2682H30.8934V32.0302H25.8535V7.04182H30.6822ZM37.2713 21.7089C37.8189 21.3837 38.2837 20.9361 38.6294 20.4011C38.9927 19.827 39.242 19.1884 39.3637 18.52C39.6655 17.0837 39.6655 15.6004 39.3637 14.1641C39.2222 13.4826 38.9599 12.8318 38.5891 12.2427C38.2408 11.6931 37.7732 11.2289 37.221 10.8846C36.6098 10.5332 35.914 10.3558 35.2091 10.3716C34.4775 10.3456 33.7532 10.5232 33.1166 10.8846C32.565 11.2219 32.0999 11.6835 31.7586 12.2326C31.3828 12.7959 31.1135 13.4233 30.9639 14.0836C30.8219 14.8128 30.7512 15.554 30.7526 16.2968C30.7483 17.0308 30.8259 17.7629 30.984 18.4797C31.118 19.1461 31.3701 19.7832 31.7284 20.3609C32.0815 20.8967 32.553 21.3442 33.1066 21.6687C33.7414 22.0138 34.4566 22.184 35.1789 22.1616C35.9044 22.2024 36.6275 22.046 37.2713 21.7089Z" fill="black"/>
<path d="M57.0689 7.04181V10.442H53.3166V19.5964C53.2419 20.2004 53.3962 20.8106 53.7492 21.3065C54.2451 21.6594 54.8552 21.8138 55.4593 21.7391C55.751 21.7391 56.0227 21.7391 56.2842 21.7391C56.5458 21.7391 56.7973 21.6787 57.0387 21.6284V25.5618C56.5626 25.6385 56.0821 25.6856 55.6001 25.7026C55.077 25.7026 54.5942 25.7026 54.0711 25.7026C53.3204 25.7023 52.5707 25.6486 51.8277 25.5417C51.1768 25.4471 50.5491 25.2322 49.9768 24.9079C49.4328 24.6042 48.9916 24.1454 48.7092 23.5901C48.3869 22.8882 48.2418 22.1178 48.2867 21.3467V10.442H45.2688V7.04181H48.2867V1.4989H53.3166V7.04181H57.0689Z" fill="black"/>
<path d="M88.6061 10.3716C87.8951 10.3497 87.194 10.5425 86.5942 10.9249C86.0452 11.2928 85.5875 11.7814 85.2562 12.3534C84.8939 12.9482 84.6386 13.6019 84.5018 14.2848C84.3591 14.9733 84.2849 15.6742 84.2804 16.3772C84.2869 17.0536 84.361 17.7276 84.5018 18.3892C84.6307 19.0494 84.865 19.6846 85.1959 20.2704C85.5158 20.836 85.968 21.3158 86.5137 21.6687C87.1177 22.0394 87.8173 22.2248 88.5257 22.2018C89.0375 22.236 89.5509 22.1644 90.0338 21.9913C90.5167 21.8182 90.9587 21.5474 91.3323 21.1959C92.0174 20.4316 92.4434 19.4704 92.5495 18.4496H97.4386C97.2514 20.6252 96.2184 22.6406 94.5615 24.0629C92.8404 25.3985 90.7024 26.0826 88.5257 25.9943C87.2254 26.0087 85.9344 25.773 84.7231 25.3002C83.6144 24.864 82.6101 24.199 81.7756 23.3486C80.9429 22.4826 80.296 21.4557 79.8743 20.3307C79.4131 19.1167 79.1844 17.8267 79.2003 16.5281C79.1817 15.1614 79.3925 13.8012 79.824 12.5043C80.2081 11.3273 80.8353 10.2443 81.6649 9.32538C82.4917 8.42206 83.504 7.70826 84.6325 7.23295C85.9079 6.7083 87.2776 6.45149 88.6564 6.47847C89.7274 6.47831 90.7935 6.62384 91.8252 6.91104C92.8126 7.19786 93.7397 7.6614 94.5615 8.27916C95.4034 8.88256 96.0947 9.67215 96.5815 10.5865C97.0684 11.5008 97.3375 12.5151 97.3682 13.5505H92.3584C92.331 13.0916 92.2109 12.6431 92.0053 12.2319C91.7997 11.8208 91.5129 11.4557 91.1621 11.1585C90.8114 10.8614 90.4041 10.6385 89.9648 10.5032C89.5254 10.3679 89.0632 10.3232 88.6061 10.3716Z" fill="black"/>
<path d="M104.33 7.04181V10.4722H104.41C104.648 9.89817 104.971 9.36257 105.366 8.88274C105.77 8.40235 106.241 7.98229 106.764 7.63533C107.285 7.29323 107.851 7.02257 108.444 6.83055C109.045 6.63651 109.673 6.53807 110.305 6.53882C110.681 6.54547 111.053 6.60646 111.412 6.7199V11.4379L110.556 11.3172C110.223 11.2792 109.887 11.2624 109.551 11.2669C108.738 11.2405 107.929 11.3988 107.186 11.7296C106.573 12.0178 106.041 12.4533 105.637 12.9972C105.232 13.5613 104.945 14.201 104.792 14.8783C104.645 15.6436 104.587 16.4235 104.621 17.2021V25.5316H99.5914V7.04181H104.33Z" fill="black"/>
<path d="M112.418 12.7256C112.434 11.6566 112.744 10.6128 113.313 9.70763C113.828 8.93023 114.517 8.28288 115.325 7.81641C116.171 7.33134 117.092 6.99132 118.051 6.81043C119.045 6.60975 120.055 6.50532 121.069 6.49858C122.015 6.50122 122.959 6.56844 123.896 6.69978C124.802 6.81552 125.685 7.07353 126.511 7.46431C127.277 7.83056 127.94 8.37995 128.443 9.06381C128.972 9.86021 129.233 10.8048 129.187 11.7598V21.3769C129.187 22.1771 129.234 22.9765 129.328 23.7711C129.38 24.3722 129.551 24.9569 129.831 25.4914H124.741C124.65 25.1996 124.57 24.9079 124.509 24.6161C124.449 24.314 124.408 24.0082 124.389 23.7007C123.603 24.5202 122.619 25.1231 121.532 25.4511C120.439 25.7832 119.304 25.9527 118.162 25.9541C117.329 25.9583 116.5 25.8501 115.697 25.6322C114.964 25.4406 114.278 25.098 113.685 24.6262C113.107 24.1734 112.647 23.5864 112.347 22.9161C112.009 22.1394 111.844 21.2983 111.864 20.4514C111.827 19.5535 112.018 18.6608 112.418 17.856C112.76 17.2089 113.249 16.6508 113.846 16.2263C114.46 15.8119 115.141 15.5057 115.858 15.321C116.606 15.1158 117.365 14.9546 118.131 14.8381C118.896 14.7174 119.64 14.6168 120.385 14.5464C121.063 14.4889 121.735 14.3813 122.397 14.2245C122.89 14.1195 123.354 13.9065 123.755 13.6007C123.924 13.4542 124.056 13.2688 124.138 13.0603C124.221 12.8518 124.251 12.6265 124.228 12.4036C124.25 11.9517 124.156 11.5017 123.956 11.0959C123.787 10.7899 123.541 10.5333 123.242 10.3515C122.933 10.1676 122.591 10.0447 122.236 9.98931C121.816 9.92732 121.392 9.89705 120.968 9.89877C120.131 9.84894 119.301 10.0751 118.604 10.5426C118.295 10.8088 118.046 11.1373 117.872 11.5065C117.699 11.8758 117.606 12.2775 117.598 12.6853L112.418 12.7256ZM124.147 16.4879C123.91 16.6862 123.637 16.8365 123.342 16.9305C123.014 17.0434 122.677 17.1342 122.336 17.2021C121.964 17.2726 121.572 17.3329 121.169 17.3731C120.767 17.4134 120.355 17.4838 119.952 17.5542C119.571 17.6266 119.194 17.724 118.826 17.846C118.462 17.9402 118.12 18.1042 117.82 18.3288C117.545 18.532 117.318 18.793 117.156 19.0934C116.983 19.4609 116.9 19.8644 116.914 20.2703C116.902 20.6664 116.985 21.0597 117.156 21.4172C117.318 21.7158 117.553 21.9684 117.84 22.1515C118.148 22.3391 118.49 22.4655 118.846 22.5237C119.237 22.5964 119.635 22.6334 120.033 22.6344C120.838 22.6768 121.641 22.5031 122.357 22.1314C122.858 21.8427 123.277 21.4306 123.574 20.9343C123.825 20.5007 123.989 20.0223 124.057 19.5259C124.109 19.1458 124.14 18.7628 124.147 18.3791V16.4879Z" fill="black"/>
<path d="M141.198 10.3716C140.488 10.351 139.787 10.5437 139.186 10.9249C138.629 11.292 138.161 11.7803 137.818 12.3533C137.467 12.9516 137.219 13.6045 137.084 14.2848C136.945 14.9736 136.874 15.6745 136.873 16.3772C136.875 17.0533 136.946 17.7273 137.084 18.3892C137.213 19.0494 137.447 19.6846 137.778 20.2704C138.1 20.8262 138.548 21.2983 139.086 21.6485C139.69 22.0182 140.39 22.2035 141.098 22.1817C141.61 22.2159 142.123 22.1442 142.606 21.9712C143.089 21.7981 143.531 21.5273 143.904 21.1757C144.595 20.4168 145.028 19.4592 145.142 18.4395H150.041C149.855 20.6133 148.826 22.6281 147.174 24.0528C145.454 25.3908 143.315 26.0752 141.138 25.9843C139.834 25.9997 138.54 25.764 137.325 25.2902C136.218 24.8512 135.214 24.1866 134.378 23.3386C133.548 22.472 132.905 21.445 132.487 20.3207C132.022 19.1073 131.79 17.8173 131.803 16.5181C131.789 15.1517 132 13.7923 132.426 12.4942C132.818 11.3208 133.445 10.2393 134.267 9.31531C135.094 8.41199 136.106 7.69819 137.235 7.22288C138.51 6.69823 139.88 6.44142 141.259 6.4684C142.33 6.46824 143.396 6.61377 144.428 6.90097C145.405 7.16743 146.326 7.61066 147.144 8.20874C147.984 8.82563 148.669 9.62925 149.146 10.5562C149.622 11.4832 149.877 12.5082 149.89 13.5505H144.92C144.893 13.0944 144.774 12.6486 144.57 12.2397C144.366 11.8307 144.082 11.4671 143.735 11.1703C143.387 10.8736 142.984 10.65 142.548 10.5127C142.112 10.3755 141.653 10.3275 141.198 10.3716Z" fill="black"/>
<path d="M158.944 31.0343C157.712 31.7582 156.297 32.1078 154.87 32.0402C154.346 32.0402 153.864 32.0402 153.31 32.0402L151.751 31.9095V27.6341L153.22 27.785C153.719 27.8201 154.22 27.8201 154.719 27.785C155.009 27.7694 155.292 27.6912 155.549 27.5558C155.806 27.4203 156.031 27.2308 156.208 27.0003C156.524 26.5646 156.693 26.0396 156.69 25.5014C156.692 25.1093 156.621 24.7203 156.479 24.3546L149.991 7.04181H155.393L159.578 19.6969H159.648L163.672 7.04181H168.923L161.197 27.8151C160.815 29.1042 160.024 30.2341 158.944 31.0343Z" fill="black"/>
<path d="M68.8588 19.1135H76.967C76.8703 19.5271 76.7459 19.9338 76.5948 20.3307C76.1694 21.4609 75.5114 22.489 74.6633 23.3486C73.8089 24.208 72.7797 24.8736 71.6454 25.3002C70.3802 25.7672 69.0404 25.9991 67.6919 25.9843C66.3496 26.0031 65.0157 25.7711 63.7585 25.3002C62.625 24.8722 61.596 24.2068 60.7406 23.3486C59.8926 22.489 59.2345 21.4609 58.8092 20.3307C58.6534 19.925 58.529 19.508 58.437 19.0833H62.9135L64.7746 17.2223C64.9168 17.0787 65.086 16.9647 65.2725 16.887C65.4589 16.8092 65.659 16.7691 65.861 16.7691C66.0631 16.7691 66.2631 16.8092 66.4496 16.887C66.6361 16.9647 66.8053 17.0787 66.9475 17.2223L68.8588 19.1135Z" fill="black"/>
<path d="M67.2795 14.3552H58.2861C58.3922 13.6447 58.5709 12.947 58.8192 12.2729C59.2342 11.1296 59.89 10.0889 60.7422 9.22108C61.5944 8.35328 62.623 7.67871 63.7586 7.24301C65.0137 6.76407 66.3486 6.5285 67.6919 6.54889C69.0415 6.53128 70.3825 6.76672 71.6454 7.24301C72.7835 7.67634 73.8147 8.34997 74.6688 9.21798C75.523 10.086 76.1799 11.128 76.5948 12.2729C76.8524 12.9579 77.0313 13.67 77.128 14.3955H73.2248L71.3235 12.4942C71.1805 12.3503 71.0104 12.2362 70.8231 12.1582C70.6357 12.0803 70.4349 12.0402 70.232 12.0402C70.0291 12.0402 69.8283 12.0803 69.6409 12.1582C69.4536 12.2362 69.2836 12.3503 69.1405 12.4942L67.2795 14.3552Z" fill="black"/>
</g>
<defs>
<clipPath id="clip0_174_58">
<rect width="168.943" height="32" fill="white"/>
</clipPath>
</defs>
</svg>
