<svg width="137" height="138" viewBox="0 0 137 138" fill="none" xmlns="http://www.w3.org/2000/svg">
<rect width="136.25" height="136.25" transform="translate(0.75 0.875)" fill="#D1EFF7"/>
<g clip-path="url(#clip0_46_435)">
<path d="M90.5012 54.425C90.1635 54.0253 89.7883 53.6589 89.3808 53.3307C89.4613 53.0747 89.5115 52.8102 89.5306 52.5425C89.8237 49.0445 86.9967 45.1948 83.5964 44.4717C83.0912 44.3731 82.5797 44.31 82.0656 44.2828C82.0265 43.8152 81.8618 43.3667 81.5889 42.9849C81.316 42.6031 80.9451 42.3021 80.5153 42.1137L79.9747 41.8466C79.5187 41.6382 79.0562 41.4297 78.5807 41.2473C77.77 40.9669 76.9232 40.8045 76.0663 40.7653C74.8677 40.6741 74.8286 40.6089 74.6462 40.3223C74.4094 39.9483 74.0812 39.6408 73.6925 39.4288C73.3039 39.2168 72.8677 39.1074 72.425 39.1107C72.1829 39.1116 71.9419 39.1445 71.7084 39.2084C71.1669 39.3633 70.6902 39.6895 70.3496 40.1381C70.0091 40.5867 69.823 41.1336 69.8194 41.6968C69.8194 45.6507 70.5815 48.6602 72.1644 50.7121C71.1051 51.0148 70.0092 51.1704 68.9074 51.1746C67.8252 51.1739 66.7484 51.0204 65.7091 50.7186C67.5981 48.556 68.3863 45.4618 68.0541 41.3971C68.0116 40.8632 67.8055 40.3554 67.464 39.9427C67.1225 39.5301 66.6621 39.2328 66.1455 39.0912C65.9223 39.0321 65.6925 39.0015 65.4616 39C65.0443 38.9995 64.6331 39.0993 64.2624 39.2909C63.8917 39.4824 63.5725 39.7602 63.3315 40.1009C62.9146 40.6871 62.6801 40.7523 61.1168 40.8109C60.0468 40.8918 59.0069 41.2029 58.0682 41.7228L57.8989 41.8075C57.3931 42.055 56.9457 42.4072 56.5864 42.8406C56.227 43.2741 55.9639 43.779 55.8144 44.3219C51.5673 44.7127 49.3591 46.8689 48.4927 51.3765C48.3899 51.9897 48.43 52.6183 48.61 53.2134C48.4862 53.2981 48.3624 53.3828 48.2387 53.4805C44.9101 56.0405 43.7375 61.9487 45.8806 65.375C46.4293 66.2056 47.0865 66.9592 47.8348 67.6158C48.0628 67.8307 48.2908 68.0457 48.4862 68.2672C48.7293 68.524 49.0222 68.7286 49.347 68.8686C49.6717 69.0086 50.0216 69.081 50.3753 69.0814C50.8173 69.0818 51.2522 68.9697 51.639 68.7557C51.7676 68.9663 51.9206 69.1609 52.0949 69.3355C52.1335 69.3962 52.1683 69.4593 52.1992 69.5244C52.2708 69.6481 52.362 69.8045 52.4793 69.9869C51.6039 70.8609 51.0603 72.0125 50.942 73.2438C50.7987 75.4651 50.7791 77.7059 50.7596 79.862V81.4058C50.714 83.9072 50.6619 88.0696 54.7461 90.5905C55.5432 91.1141 56.3008 91.6954 57.013 92.3297C57.4103 92.6619 57.8012 92.9811 58.205 93.3133C58.6669 93.6778 59.2386 93.8753 59.827 93.8735C59.9888 93.8745 60.1503 93.8592 60.309 93.8279C61.4369 95.103 62.9476 95.9784 64.6148 96.3228L64.8232 96.3684C65.2058 97.1119 65.7713 97.746 66.4664 98.2109C67.1615 98.6758 67.9634 98.9563 68.7967 99.0261H69.0833C70.8095 98.8697 71.9104 97.5148 72.6399 96.6224L72.6855 96.5703H72.7507C73.2572 96.5708 73.753 96.4237 74.1772 96.1469C74.4182 95.984 74.6593 95.8082 74.9003 95.6323C75.0646 95.4988 75.2364 95.3748 75.4149 95.261C76.2928 95.0122 77.0786 94.5118 77.6752 93.8214H77.9423C78.4979 93.821 79.0388 93.643 79.4861 93.3133C79.7857 93.0918 80.0919 92.8834 80.4046 92.6619C81.311 92.0948 82.1597 91.4403 82.9385 90.7077C83.1665 90.4798 83.4401 90.2322 83.7332 89.9782C85.036 88.8187 87.0553 87.0664 86.9055 83.8616C86.8013 81.6208 86.7948 79.3018 86.7882 77.0675C86.7882 76.2793 86.7882 75.4912 86.7882 74.703C86.7882 72.3058 86.3844 70.8532 85.2705 69.8892C85.4594 69.6677 85.6483 69.4397 85.8242 69.2378L85.9935 69.0293C86.0868 68.9162 86.1717 68.7965 86.2476 68.671C86.7811 69.0384 87.4322 69.1939 88.0741 69.1072C88.716 69.0205 89.3026 68.6978 89.7195 68.202C89.9109 67.9733 90.1153 67.7558 90.3318 67.5506C91.1795 66.804 91.8476 65.8754 92.286 64.8343C92.9807 63.104 93.1816 61.2149 92.8665 59.3771C92.5514 57.5394 91.7326 55.8251 90.5012 54.425ZM80.5088 49.3246C80.626 48.5234 80.7238 47.7092 80.8475 46.7842C81.5868 46.8098 82.3241 46.8772 83.0557 46.9861C85.1858 47.4421 87.1205 50.1128 86.9641 52.2885C86.9726 52.4618 86.9285 52.6336 86.8376 52.7814C86.7466 52.9292 86.6131 53.046 86.4545 53.1164C86.296 53.1869 86.1198 53.2078 85.9492 53.1762C85.7785 53.1447 85.6214 53.0623 85.4985 52.9399C85.1229 52.5601 84.7868 52.1432 84.4953 51.6957C83.9458 51.0251 83.2847 50.4544 82.5411 50.0086C83.1995 51.4522 83.7779 52.9309 84.2739 54.4381C84.4237 54.9787 83.896 55.7083 83.6746 56.3532C83.1829 56.1332 82.7119 55.8694 82.2676 55.565C80.2222 53.8909 80.1766 51.6566 80.5088 49.3246ZM83.9547 67.3161C83.3684 68.0392 82.4565 69.2703 81.9028 69.1335C79.1539 68.5668 76.1835 68.5668 73.8385 66.6387C73.1871 66.085 71.969 63.3101 72.3989 62.6522C72.6269 62.3134 73.2978 62.2613 73.5389 62.1701C75.1087 62.3981 76.3855 62.6847 77.6752 62.7434C78.7121 62.7593 79.7475 62.661 80.7628 62.4502C80.9323 62.389 81.1126 62.3637 81.2924 62.3757C81.4721 62.3878 81.6474 62.437 81.8072 62.5203C81.967 62.6035 82.1078 62.719 82.2206 62.8594C82.3335 62.9999 82.416 63.1622 82.463 63.3361C82.8538 64.2481 83.4401 65.0753 83.8374 65.9808C84.0133 66.3586 84.1631 67.0621 83.9547 67.3161ZM77.6557 43.677C78.3071 43.918 78.8868 44.2112 79.4666 44.4652C79.0692 46.7972 77.4668 46.9145 74.4964 44.9538L74.2098 45.2404C74.9654 45.8918 75.6103 46.8037 76.4832 47.1359C78.5807 47.9306 78.6719 49.5331 78.6067 51.3244C73.8255 50.7968 72.3924 47.0708 72.425 41.7163C73.8125 43.8985 75.9555 43.0256 77.6557 43.677ZM59.0193 44.1591C59.6846 43.7671 60.4225 43.5145 61.1884 43.4165C62.7453 43.3709 64.2435 43.3318 65.4616 41.6056C65.9306 47.4681 64.0155 50.2822 59.143 51.4416C59.0714 49.6112 59.104 47.9632 61.2601 47.1424C62.1329 46.8037 62.7908 45.9113 63.553 45.2729L63.325 44.9994C62.5776 45.4266 61.7978 45.7946 60.993 46.1002C60.3954 46.2752 59.7602 46.2752 59.1626 46.1002C58.9601 45.983 58.7846 45.8244 58.6476 45.6347C58.5107 45.445 58.4153 45.2285 58.3679 44.9994C58.3093 44.7648 58.7196 44.3024 59.0193 44.1591ZM58.8955 53.9821C60.1462 52.1647 61.9505 52.1452 63.7745 52.8226C67.0777 54.073 70.7241 54.073 74.0274 52.8226C76.6721 51.8781 77.9358 52.4318 79.4405 54.7768C80.359 56.1838 81.323 57.5648 82.2024 58.9978C82.353 59.3981 82.4345 59.821 82.4434 60.2485C82.0383 60.3701 81.6152 60.4208 81.1928 60.3983C80.1817 60.1259 79.1269 60.0553 78.0886 60.1905C77.0503 60.3258 76.0488 60.6642 75.1413 61.1865C74.7483 61.4059 74.3157 61.5453 73.8686 61.5966C73.4214 61.6479 72.9685 61.61 72.536 61.4853C72.1036 61.3605 71.7001 61.1513 71.349 60.8697C70.9979 60.5881 70.706 60.2397 70.4903 59.8446C69.9757 58.8676 69.5132 57.8905 68.9009 56.5877C68.2495 57.8905 67.8717 58.861 67.3832 59.76C67.1781 60.1636 66.8939 60.5219 66.5475 60.8135C66.2011 61.105 65.7996 61.3239 65.3668 61.457C64.934 61.5901 64.4789 61.6347 64.0285 61.5883C63.5781 61.5418 63.1417 61.4052 62.7453 61.1865C61.8117 60.6502 60.779 60.309 59.7097 60.1836C58.6404 60.0582 57.5567 60.1512 56.5244 60.457C56.1399 60.487 55.7529 60.4563 55.378 60.3658C55.3549 59.9483 55.4124 59.5303 55.5473 59.1346C56.6287 57.3954 57.7295 55.6692 58.8955 53.9821ZM70.0278 68.1825C70.1907 68.6841 69.8194 69.4332 69.5067 69.9543C69.3282 70.049 69.1291 70.0985 68.927 70.0985C68.7249 70.0985 68.5258 70.049 68.3472 69.9543C67.9989 69.4291 67.8007 68.8187 67.774 68.189C67.8548 67.4563 68.0187 66.7351 68.2626 66.0394C68.0346 65.1405 67.8652 64.209 67.5525 63.3296C67.3815 63.0095 67.3395 62.636 67.4352 62.2859C67.5309 61.9358 67.757 61.6357 68.0671 61.4471C68.2969 61.2299 68.6011 61.109 68.9172 61.109C69.2334 61.109 69.5375 61.2299 69.7673 61.4471C69.9249 61.5333 70.0637 61.6501 70.1755 61.7907C70.2873 61.9312 70.3699 62.0927 70.4185 62.2657C70.467 62.4386 70.4805 62.6195 70.4582 62.7977C70.4358 62.976 70.3781 63.1479 70.2884 63.3036C69.5785 64.8361 69.4852 66.583 70.0278 68.1825ZM65.3378 62.3199C65.3378 65.8245 63.4553 67.9675 60.2569 68.4235C58.9081 68.5918 57.5704 68.8397 56.2508 69.1661C54.7266 69.583 54.6419 68.1239 53.9644 67.4985C53.7039 67.2575 53.7821 66.4302 53.9644 65.9808C54.3423 65.0688 54.9936 64.2611 55.3389 63.3752C55.6841 62.4893 56.1727 62.4502 57.0065 62.4502C58.915 62.5089 60.8236 62.3786 62.7387 62.3395C63.579 62.3199 64.4258 62.333 65.3378 62.333V62.3199ZM51.0527 51.8585C51.7497 48.2238 53.1828 46.9731 56.9153 46.8689C57.2344 49.0706 57.8272 51.3179 57.0977 53.5131C56.7459 54.5553 55.7558 55.3956 54.9936 56.275C54.8686 56.3495 54.7271 56.3921 54.5816 56.3989C54.4362 56.4057 54.2914 56.3766 54.1599 56.3141C53.8342 55.806 53.3196 55.1351 53.4433 54.6791C53.8495 53.4004 54.348 52.153 54.935 50.9466C55.0906 50.6514 55.2715 50.3702 55.4757 50.1063L55.1565 49.8001C54.5833 50.3473 53.9775 50.8619 53.4498 51.4482C53.1241 51.8129 53.0004 52.3927 52.6291 52.6793C52.2219 52.8859 51.7804 53.0161 51.3263 53.0636C51.1655 52.681 51.0729 52.2731 51.0527 51.8585ZM52.3946 63.2645C51.8767 62.745 51.4378 62.1525 51.0918 61.5057C50.7701 60.4374 50.5177 59.3495 50.3362 58.2487C50.0452 59.213 49.9529 60.2263 50.0649 61.2272C50.1768 62.2282 50.4907 63.1961 50.9876 64.0722C51.4761 64.932 51.4045 65.5965 50.3753 66.4824C49.5333 65.7371 48.7674 64.9101 48.0889 64.0136C46.6232 61.636 47.6133 57.2391 49.8281 55.5389C50.5446 54.9917 51.1309 54.8875 51.5608 55.793C52.2122 57.0436 52.831 58.2878 53.3586 59.5776C53.5616 60.0903 53.5914 60.6553 53.4433 61.1865C53.1542 61.9081 52.8033 62.6033 52.3946 63.2645ZM60.0941 89.0271C60.2263 89.6835 60.2961 90.3509 60.3025 91.0204L59.827 91.2679C58.6452 90.2322 57.4055 89.2645 56.114 88.3692C53.4303 86.7147 53.3196 84.1287 53.3521 81.4514C53.3847 78.7742 53.3521 76.0904 53.5476 73.4197C53.5866 72.7683 54.1533 71.7521 54.6354 71.6544C58.4786 70.8337 62.387 70.1953 66.2302 69.5179C66.3605 69.5179 66.5233 69.6091 66.6797 69.9934L63.9178 70.5471C60.2699 71.2506 58.6089 74.0646 58.5242 77.1848C58.4288 81.1898 58.9584 85.1853 60.0941 89.0271ZM71.2916 90.3299C71.1938 91.3657 71.0701 92.4014 70.9593 93.4371C70.9072 93.8866 71.0115 94.4663 70.7704 94.7399C70.2233 95.3913 69.5393 96.3162 68.8163 96.3814C68.4111 96.3049 68.0327 96.1249 67.7177 95.859C67.4027 95.5931 67.1618 95.2502 67.0184 94.8636C66.6145 90.4602 65.5137 86.1415 65.9306 81.6989C66.9274 81.9054 67.9373 82.0426 68.953 82.1093C69.9966 82.0288 71.033 81.8721 72.0537 81.6403C71.7996 84.5977 71.5521 87.4573 71.2916 90.3299ZM66.2954 80.1291C66.152 78.1749 67.1878 76.8721 68.8423 76.8721C70.4969 76.8721 71.5521 78.1749 71.3893 80.1291C70.6282 79.6445 69.7446 79.3871 68.8423 79.3871C67.94 79.3871 67.0565 79.6445 66.2954 80.1291ZM77.102 81.7901C76.6851 84.5065 76.4506 87.2488 76.2291 89.9847C76.1444 91.2419 76.0663 92.2841 74.6137 92.7336C73.9334 93.0445 73.2981 93.4455 72.7246 93.9256L72.3338 93.7042C72.5618 92.0236 72.7963 90.3495 73.0308 88.6689C73.4802 85.4119 74.0665 82.1549 73.2262 78.898C72.9975 77.9309 72.6381 76.9995 72.1579 76.1295C70.4708 73.2178 67.2464 73.2243 65.5202 76.1295C64.1327 78.455 63.8917 81.0541 64.1002 83.6531C64.3412 86.4085 64.8362 89.1574 65.1815 91.8998C65.2596 92.4991 65.2466 93.1179 65.2792 93.7758C62.6736 93.0853 61.7226 92.0887 61.4555 89.6916C61.0842 86.2652 60.6022 82.8389 60.4328 79.3865C60.4309 77.6613 60.7013 75.9465 61.234 74.3056C61.8854 71.9345 64.7906 70.6708 67.1878 71.2897C68.2571 71.5556 69.3754 71.5556 70.4447 71.2897C72.9266 70.6383 75.7601 71.9411 76.4701 74.3773C77.2363 76.7689 77.4611 79.301 77.1281 81.7901H77.102ZM81.082 88.8382C80.0971 89.7012 79.0475 90.4874 77.9423 91.1898L77.3691 90.9813C77.4191 90.263 77.5193 89.5491 77.6687 88.8447C78.8112 85.0017 79.3022 80.9945 79.1213 76.9894C78.8998 72.8204 76.3529 70.8988 72.8679 70.3582C72.2165 70.2539 71.5651 70.0781 70.9528 69.9348V69.5439C71.7962 69.4787 72.6434 69.4787 73.4868 69.5439C76.0663 69.9738 78.6719 70.4038 81.1732 70.9184C83.9286 71.5111 84.1436 71.8694 84.1631 74.6574C84.1631 77.7385 84.1631 80.8326 84.3064 83.9072C84.4172 86.4151 82.4565 87.4377 81.082 88.8382ZM89.7977 63.8898C89.4524 64.8539 88.4493 65.5769 87.7067 66.4563C86.4886 65.5118 86.2867 64.8148 86.886 63.753C87.7771 62.0428 87.9732 60.0544 87.4331 58.2031C87.1335 60.0335 87.0162 61.9031 85.4789 63.3687C85.0129 62.941 84.665 62.4004 84.4688 61.7991C84.2725 61.1978 84.2346 60.5561 84.3585 59.9358C84.683 58.6768 85.1806 57.4689 85.8372 56.3467C86.7948 54.6921 87.2638 54.6595 88.5014 56.1122C89.4225 57.158 90.0322 58.441 90.2614 59.8157C90.4905 61.1904 90.3298 62.6018 89.7977 63.8898Z" fill="#03035A"/>
</g>
<defs>
<clipPath id="clip0_46_435">
<rect width="48.1511" height="60" fill="white" transform="translate(44.7993 39)"/>
</clipPath>
</defs>
</svg>
