<svg width="19" height="19" viewBox="0 0 19 19" fill="none" xmlns="http://www.w3.org/2000/svg">
<path opacity="0.4" d="M16.9375 9.375C16.9375 13.4136 13.6636 16.6875 9.625 16.6875C5.58642 16.6875 2.3125 13.4136 2.3125 9.375C2.3125 5.33642 5.58642 2.0625 9.625 2.0625C13.6636 2.0625 16.9375 5.33642 16.9375 9.375Z" fill="black" stroke="black"/>
<path d="M10.0996 9.02145L9.74602 9.375L10.0996 9.72855L11.8964 11.5254C11.9104 11.5394 11.9199 11.5601 11.9199 11.5859C11.9199 11.6118 11.9104 11.6325 11.8964 11.6464C11.8857 11.6572 11.876 11.6628 11.8679 11.6661C11.8592 11.6696 11.8487 11.6719 11.8359 11.6719C11.8232 11.6719 11.8126 11.6696 11.804 11.6661C11.7958 11.6628 11.7862 11.6572 11.7754 11.6464L9.97855 9.84957L9.625 9.49602L9.27145 9.84957L7.47457 11.6464C7.4638 11.6572 7.45418 11.6628 7.44601 11.6661C7.43737 11.6696 7.4268 11.6719 7.41406 11.6719C7.40133 11.6719 7.39075 11.6696 7.38212 11.6661C7.37395 11.6628 7.36433 11.6572 7.35355 11.6464C7.33958 11.6325 7.33008 11.6118 7.33008 11.5859C7.33008 11.5601 7.33958 11.5394 7.35355 11.5254L9.15043 9.72855L9.50398 9.375L9.15043 9.02145L7.35355 7.22457C7.33958 7.2106 7.33008 7.18989 7.33008 7.16406C7.33008 7.13824 7.33958 7.11753 7.35355 7.10355C7.36753 7.08958 7.38824 7.08008 7.41406 7.08008C7.43989 7.08008 7.4606 7.08958 7.47457 7.10355L9.27145 8.90043L9.625 9.25398L9.97855 8.90043L11.7754 7.10355C11.7894 7.08958 11.8101 7.08008 11.8359 7.08008C11.8618 7.08008 11.8825 7.08958 11.8964 7.10355C11.9104 7.11753 11.9199 7.13824 11.9199 7.16406C11.9199 7.18989 11.9104 7.2106 11.8964 7.22457L10.0996 9.02145Z" fill="black" stroke="black"/>
</svg>
